<?xml version="1.0" encoding="UTF-8"?>
<svg xmlns="http://www.w3.org/2000/svg" xmlns:xlink="http://www.w3.org/1999/xlink" viewBox="0 0 10 10" width="10px" height="10px">
<g id="surface10995808">
<path style=" stroke:none;fill-rule:nonzero;fill:rgb(65.490198%,66.274512%,67.450982%);fill-opacity:1;" d="M 5.527344 6.195312 L 6.558594 7.226562 C 6.402344 7.53125 6.386719 7.828125 6.550781 7.996094 L 8.4375 9.882812 C 8.675781 10.117188 9.191406 9.988281 9.589844 9.589844 C 9.988281 9.191406 10.117188 8.675781 9.882812 8.4375 L 7.996094 6.550781 C 7.828125 6.386719 7.53125 6.402344 7.226562 6.558594 L 6.195312 5.527344 Z M 3.542969 0 C 1.585938 0 0 1.585938 0 3.542969 C 0 5.5 1.585938 7.082031 3.542969 7.082031 C 5.5 7.082031 7.082031 5.5 7.082031 3.542969 C 7.082031 1.585938 5.5 0 3.542969 0 Z M 3.542969 6.25 C 2.046875 6.25 0.832031 5.039062 0.832031 3.542969 C 0.832031 2.046875 2.046875 0.832031 3.542969 0.832031 C 5.039062 0.832031 6.25 2.046875 6.25 3.542969 C 6.25 5.039062 5.039062 6.25 3.542969 6.25 Z M 3.542969 6.25 "/>
</g>
</svg>
