<?xml version="1.0" encoding="UTF-8"?>
<svg xmlns="http://www.w3.org/2000/svg" xmlns:xlink="http://www.w3.org/1999/xlink" viewBox="0 0 24 24" width="24px" height="24px">
<g id="surface49438354">
<path style=" stroke:none;fill-rule:nonzero;fill:rgb(15.686275%,91.37255%,47.450981%);fill-opacity:1;" d="M 12 24 C 5.371094 24 0 18.628906 0 12 C 0 5.371094 5.371094 0 12 0 C 18.628906 0 24 5.371094 24 12 C 24 18.628906 18.628906 24 12 24 Z M 12 24 "/>
<path style=" stroke:none;fill-rule:nonzero;fill:rgb(100%,100%,100%);fill-opacity:1;" d="M 18.109375 5.890625 C 17.839844 5.621094 17.488281 5.488281 17.136719 5.488281 C 16.78125 5.488281 16.429688 5.621094 16.160156 5.890625 C 16.160156 5.890625 16.140625 5.910156 16.117188 5.9375 C 16.113281 5.9375 16.109375 5.9375 16.109375 5.941406 L 6.136719 15.910156 C 6.105469 15.945312 6.078125 15.988281 6.066406 16.035156 L 5.496094 18.15625 C 5.46875 18.253906 5.496094 18.359375 5.570312 18.429688 C 5.625 18.484375 5.695312 18.511719 5.769531 18.511719 C 5.792969 18.511719 5.820312 18.511719 5.84375 18.503906 L 7.964844 17.933594 C 8.011719 17.921875 8.054688 17.894531 8.089844 17.859375 L 18.058594 7.894531 C 18.0625 7.890625 18.0625 7.886719 18.066406 7.882812 C 18.089844 7.855469 18.109375 7.839844 18.109375 7.839844 C 18.648438 7.300781 18.648438 6.429688 18.109375 5.890625 Z M 17.710938 6.289062 C 18.027344 6.605469 18.027344 7.121094 17.710938 7.4375 C 17.617188 7.53125 17.535156 7.613281 17.46875 7.679688 L 16.320312 6.53125 C 16.449219 6.402344 16.5625 6.289062 16.5625 6.289062 C 16.714844 6.136719 16.917969 6.054688 17.136719 6.054688 C 17.351562 6.054688 17.554688 6.136719 17.710938 6.289062 Z M 6.507812 16.574219 L 7.425781 17.492188 L 6.171875 17.828125 Z M 6.507812 16.574219 "/>
</g>
</svg>
