<?xml version="1.0" encoding="UTF-8"?>
<svg xmlns="http://www.w3.org/2000/svg" xmlns:xlink="http://www.w3.org/1999/xlink" viewBox="0 0 24 24" width="24px" height="24px">
<g id="surface49434043">
<path style=" stroke:none;fill-rule:nonzero;fill:rgb(15.686275%,91.37255%,47.450981%);fill-opacity:1;" d="M 12 21.238281 C 6.898438 21.238281 2.761719 17.101562 2.761719 12 C 2.761719 6.898438 6.898438 2.761719 12 2.761719 C 17.101562 2.761719 21.238281 6.898438 21.238281 12 C 21.238281 17.101562 17.101562 21.238281 12 21.238281 Z M 12 21.238281 "/>
<path style=" stroke:none;fill-rule:nonzero;fill:rgb(100%,100%,100%);fill-opacity:1;" d="M 12 2.398438 C 6.695312 2.398438 2.398438 6.695312 2.398438 12 C 2.398438 17.304688 6.695312 21.601562 12 21.601562 C 17.304688 21.601562 21.601562 17.304688 21.601562 12 C 21.601562 6.695312 17.304688 2.398438 12 2.398438 Z M 12 4 C 16.417969 4 20 7.582031 20 12 C 20 16.417969 16.417969 20 12 20 C 7.582031 20 4 16.417969 4 12 C 4 7.582031 7.582031 4 12 4 Z M 12 7.050781 C 11.851562 7.050781 11.730469 7.046875 11.601562 7.074219 C 11.46875 7.101562 11.347656 7.175781 11.25 7.25 C 11.152344 7.324219 11.082031 7.429688 11.023438 7.550781 C 10.96875 7.671875 10.949219 7.816406 10.949219 8 C 10.949219 8.179688 10.96875 8.324219 11.023438 8.449219 C 11.082031 8.574219 11.152344 8.675781 11.25 8.75 C 11.347656 8.824219 11.46875 8.867188 11.601562 8.898438 C 11.730469 8.929688 11.851562 8.949219 12 8.949219 C 12.144531 8.949219 12.296875 8.929688 12.425781 8.898438 C 12.554688 8.867188 12.652344 8.824219 12.75 8.75 C 12.847656 8.675781 12.917969 8.574219 12.976562 8.449219 C 13.03125 8.328125 13.074219 8.179688 13.074219 8 C 13.074219 7.816406 13.03125 7.671875 12.976562 7.550781 C 12.917969 7.429688 12.847656 7.324219 12.75 7.25 C 12.652344 7.175781 12.554688 7.101562 12.425781 7.074219 C 12.296875 7.046875 12.144531 7.050781 12 7.050781 Z M 11.023438 9.726562 L 11.023438 16.898438 L 12.976562 16.898438 L 12.976562 9.726562 Z M 11.023438 9.726562 "/>
</g>
</svg>
