<?xml version="1.0" encoding="UTF-8"?>
<svg xmlns="http://www.w3.org/2000/svg" xmlns:xlink="http://www.w3.org/1999/xlink" viewBox="0 0 24 24" width="24px" height="24px">
<g id="surface49466858">
<path style=" stroke:none;fill-rule:nonzero;fill:rgb(94.509804%,76.862746%,5.882353%);fill-opacity:1;" d="M 12 24 C 5.371094 24 0 18.628906 0 12 C 0 5.371094 5.371094 0 12 0 C 18.628906 0 24 5.371094 24 12 C 24 18.628906 18.628906 24 12 24 Z M 12 24 "/>
<path style=" stroke:none;fill-rule:nonzero;fill:rgb(100%,100%,100%);fill-opacity:1;" d="M 16.167969 4.492188 C 15.816406 4.488281 15.472656 4.613281 15.207031 4.878906 L 14.617188 5.488281 L 18.511719 9.402344 L 19.101562 8.792969 C 19.636719 8.257812 19.640625 7.394531 19.101562 6.851562 L 17.144531 4.898438 C 16.875 4.625 16.519531 4.492188 16.167969 4.492188 Z M 13.953125 6.023438 L 13.027344 6.910156 L 17.089844 10.96875 L 18.03125 10.101562 Z M 12.4375 7.554688 L 6.050781 13.886719 C 5.902344 13.964844 5.796875 14.097656 5.753906 14.257812 L 4.386719 18.890625 C 4.324219 19.09375 4.382812 19.316406 4.53125 19.46875 C 4.679688 19.617188 4.90625 19.671875 5.109375 19.609375 L 9.742188 18.246094 C 9.957031 18.210938 10.132812 18.0625 10.203125 17.855469 L 16.5 11.617188 L 15.632812 10.75 L 9.167969 17.230469 L 6.566406 17.984375 L 6.011719 17.433594 L 6.808594 14.71875 L 13.214844 8.332031 Z M 13.839844 8.976562 L 7.359375 15.476562 L 8.300781 15.679688 L 8.429688 16.546875 L 14.929688 10.066406 Z M 13.839844 8.976562 "/>
</g>
</svg>
