<?xml version="1.0" encoding="UTF-8"?>
<svg xmlns="http://www.w3.org/2000/svg" xmlns:xlink="http://www.w3.org/1999/xlink" viewBox="0 0 24 24" width="24px" height="24px">
<g id="surface49181593">
<path style=" stroke:none;fill-rule:nonzero;fill:rgb(90.588236%,29.803923%,23.529412%);fill-opacity:1;" d="M 12 24 C 5.371094 24 0 18.628906 0 12 C 0 5.371094 5.371094 0 12 0 C 18.628906 0 24 5.371094 24 12 C 24 18.628906 18.628906 24 12 24 Z M 12 24 "/>
<path style=" stroke:none;fill-rule:nonzero;fill:rgb(100%,100%,100%);fill-opacity:1;" d="M 11.992188 5.84375 C 11.730469 5.847656 11.523438 6.0625 11.527344 6.324219 L 11.527344 6.558594 L 8.933594 6.558594 C 8.804688 6.558594 8.683594 6.605469 8.59375 6.695312 C 8.503906 6.785156 8.453125 6.90625 8.453125 7.03125 L 7.753906 7.03125 C 7.582031 7.03125 7.421875 7.117188 7.335938 7.265625 C 7.25 7.414062 7.25 7.59375 7.335938 7.742188 C 7.421875 7.890625 7.582031 7.976562 7.753906 7.976562 L 16.246094 7.976562 C 16.417969 7.976562 16.578125 7.890625 16.664062 7.742188 C 16.75 7.59375 16.75 7.414062 16.664062 7.265625 C 16.578125 7.117188 16.417969 7.03125 16.246094 7.03125 L 15.546875 7.03125 C 15.546875 6.90625 15.496094 6.785156 15.40625 6.695312 C 15.316406 6.605469 15.195312 6.558594 15.066406 6.558594 L 12.472656 6.558594 L 12.472656 6.324219 C 12.472656 6.195312 12.421875 6.074219 12.332031 5.984375 C 12.242188 5.894531 12.121094 5.84375 11.992188 5.84375 Z M 7.753906 8.917969 L 8.597656 16.109375 C 8.652344 16.585938 9.054688 16.945312 9.535156 16.945312 L 14.464844 16.945312 C 14.945312 16.945312 15.34375 16.585938 15.402344 16.109375 L 16.246094 8.917969 Z M 7.753906 8.917969 "/>
</g>
</svg>
